<?xml version="1.0" encoding="utf-8"?>
<!-- Generator: Adobe Illustrator 26.0.1, SVG Export Plug-In . SVG Version: 6.00 Build 0)  -->
<svg version="1.1" id="Layer_1" xmlns="http://www.w3.org/2000/svg" xmlns:xlink="http://www.w3.org/1999/xlink" x="0px" y="0px"
	 viewBox="0 0 375.1 102.5" style="enable-background:new 0 0 375.1 102.5;" xml:space="preserve">
<style type="text/css">
	.st0{opacity:0.65;}
	.st1{fill:#FFFFFF;stroke:#424242;stroke-width:4;stroke-miterlimit:10;}
</style>
<g class="st0">
	<path class="st1" d="M89.6,95.1L52,51.9c-1-1.1-0.9-2.7,0-3.8L89.3,7.5C91.2,5.4,89.7,2,86.9,2H62.1c-2.5,0-4.9,1.1-6.6,3
		L34.7,28.6c-1.1,1.3-3.2,0.5-3.2-1.2V4.7c0-1.5-1.2-2.7-2.7-2.7H4.7C3.2,2,2,3.2,2,4.7v92.9c0,1.5,1.2,2.7,2.7,2.7h24.2
		c1.5,0,2.7-1.2,2.7-2.7V71.9c0-1.7,2.2-2.5,3.3-1.1l20.7,26.3c1.7,2.1,4.2,3.3,6.9,3.3h24.8C89.9,100.5,91.4,97.2,89.6,95.1z"/>
	<path class="st1" d="M196.7,100.5h-21c-2.4,0-4.3-1.9-4.3-4.3V6.3c0-2.4,1.9-4.3,4.3-4.3h21c2.4,0,4.3,1.9,4.3,4.3v89.9
		C201,98.6,199.1,100.5,196.7,100.5z"/>
	<path class="st1" d="M125,70.3v-64c0-2.4-1.9-4.3-4.3-4.3h-21c-2.4,0-4.3,1.9-4.3,4.3v68.3v21.6c0,2.4,1.9,4.3,4.3,4.3h25.2h37.3
		c2.4,0,4.3-1.9,4.3-4.3V78.9c0-2.4-1.9-4.3-4.3-4.3h-33C126.9,74.6,125,72.7,125,70.3z"/>
	<path class="st1" d="M247.3,2c-1.1,0-3.4,0-3.5,0h-10.4h-23.1c-2.4,0-4.3,1.9-4.3,4.3v89.9c0,2.4,1.9,4.3,4.3,4.3h21
		c2.4,0,4.3-1.9,4.3-4.3V71.4c0-0.8,0.7-1.3,1.4-1.1c10.5,3.1,24.3,3.4,36.2-8.4C298.5,36.6,274.6,2,247.3,2z M254.7,45.1
		c-11.2,7.9-23.6-4.5-15.7-15.7c0.3-0.4,0.6-0.7,1-1c11.2-7.9,23.6,4.5,15.7,15.7C255.4,44.6,255,44.9,254.7,45.1z"/>
	<path class="st1" d="M372,17.6L357.6,3.2c-1.6-1.6-4.2-1.6-5.9,0l-23,23c-0.6,0.6-1.7,0.6-2.3,0l-23-23c-1.6-1.6-4.2-1.6-5.9,0
		l-14.4,14.4c-1.6,1.6-1.6,4.2,0,5.9l29.6,29.6c0.3,0.3,0.5,0.8,0.5,1.2v42.1c0,2.3,1.9,4.1,4.1,4.1h20.4c2.3,0,4.1-1.9,4.1-4.1
		V54.3c0-0.5,0.2-0.9,0.5-1.2l29.6-29.6C373.6,21.9,373.6,19.2,372,17.6z"/>
</g>
</svg>
